<svg version="1.1" xmlns="http://www.w3.org/2000/svg" xmlns:xlink="http://www.w3.org/1999/xlink" width="2148" height="1312"><defs><clipPath id="pQiBHayZHFqF"><path fill="none" stroke="none" d=" M 0 0 L 2148 0 L 2148 1312 L 0 1312 L 0 0 Z"/></clipPath></defs><g transform="scale(1,1)" clip-path="url(#pQiBHayZHFqF)"><g><rect fill="rgb(255,255,255)" stroke="none" x="0" y="0" width="2148" height="1312" fill-opacity="1"/><path fill="none" stroke="rgb(180,179,186)" paint-order="fill stroke markers" d=" M 54.5 0.5 L 54.5 1312.5 M 54.5 0.5 L 54.5 1312.5 M 112.5 0.5 L 112.5 1312.5 M 169.5 0.5 L 169.5 1312.5 M 226.5 0.5 L 226.5 1312.5 M 283.5 0.5 L 283.5 1312.5 M 341.5 0.5 L 341.5 1312.5 M 398.5 0.5 L 398.5 1312.5 M 455.5 0.5 L 455.5 1312.5 M 512.5 0.5 L 512.5 1312.5 M 569.5 0.5 L 569.5 1312.5 M 627.5 0.5 L 627.5 1312.5 M 684.5 0.5 L 684.5 1312.5 M 798.5 0.5 L 798.5 1312.5 M 855.5 0.5 L 855.5 1312.5 M 913.5 0.5 L 913.5 1312.5 M 970.5 0.5 L 970.5 1312.5 M 1027.5 0.5 L 1027.5 1312.5 M 1084.5 0.5 L 1084.5 1312.5 M 1141.5 0.5 L 1141.5 1312.5 M 1199.5 0.5 L 1199.5 1312.5 M 1256.5 0.5 L 1256.5 1312.5 M 1313.5 0.5 L 1313.5 1312.5 M 1370.5 0.5 L 1370.5 1312.5 M 1428.5 0.5 L 1428.5 1312.5 M 1485.5 0.5 L 1485.5 1312.5 M 1542.5 0.5 L 1542.5 1312.5 M 1599.5 0.5 L 1599.5 1312.5 M 1656.5 0.5 L 1656.5 1312.5 M 1714.5 0.5 L 1714.5 1312.5 M 1771.5 0.5 L 1771.5 1312.5 M 1828.5 0.5 L 1828.5 1312.5 M 1885.5 0.5 L 1885.5 1312.5 M 1942.5 0.5 L 1942.5 1312.5 M 2000.5 0.5 L 2000.5 1312.5 M 2057.5 0.5 L 2057.5 1312.5 M 2114.5 0.5 L 2114.5 1312.5" stroke-opacity="1" stroke-linecap="round" stroke-linejoin="round" stroke-miterlimit="10"/><path fill="none" stroke="rgb(180,179,186)" paint-order="fill stroke markers" d=" M 9.5 0.5 L 9.5 1312.5 M 20.5 0.5 L 20.5 1312.5 M 32.5 0.5 L 32.5 1312.5 M 43.5 0.5 L 43.5 1312.5 M 66.5 0.5 L 66.5 1312.5 M 77.5 0.5 L 77.5 1312.5 M 89.5 0.5 L 89.5 1312.5 M 100.5 0.5 L 100.5 1312.5 M 123.5 0.5 L 123.5 1312.5 M 135.5 0.5 L 135.5 1312.5 M 146.5 0.5 L 146.5 1312.5 M 157.5 0.5 L 157.5 1312.5 M 180.5 0.5 L 180.5 1312.5 M 192.5 0.5 L 192.5 1312.5 M 203.5 0.5 L 203.5 1312.5 M 215.5 0.5 L 215.5 1312.5 M 238.5 0.5 L 238.5 1312.5 M 249.5 0.5 L 249.5 1312.5 M 260.5 0.5 L 260.5 1312.5 M 272.5 0.5 L 272.5 1312.5 M 295.5 0.5 L 295.5 1312.5 M 306.5 0.5 L 306.5 1312.5 M 318.5 0.5 L 318.5 1312.5 M 329.5 0.5 L 329.5 1312.5 M 352.5 0.5 L 352.5 1312.5 M 363.5 0.5 L 363.5 1312.5 M 375.5 0.5 L 375.5 1312.5 M 386.5 0.5 L 386.5 1312.5 M 409.5 0.5 L 409.5 1312.5 M 421.5 0.5 L 421.5 1312.5 M 432.5 0.5 L 432.5 1312.5 M 444.5 0.5 L 444.5 1312.5 M 466.5 0.5 L 466.5 1312.5 M 478.5 0.5 L 478.5 1312.5 M 489.5 0.5 L 489.5 1312.5 M 501.5 0.5 L 501.5 1312.5 M 524.5 0.5 L 524.5 1312.5 M 535.5 0.5 L 535.5 1312.5 M 546.5 0.5 L 546.5 1312.5 M 558.5 0.5 L 558.5 1312.5 M 581.5 0.5 L 581.5 1312.5 M 592.5 0.5 L 592.5 1312.5 M 604.5 0.5 L 604.5 1312.5 M 615.5 0.5 L 615.5 1312.5 M 638.5 0.5 L 638.5 1312.5 M 649.5 0.5 L 649.5 1312.5 M 661.5 0.5 L 661.5 1312.5 M 672.5 0.5 L 672.5 1312.5 M 695.5 0.5 L 695.5 1312.5 M 707.5 0.5 L 707.5 1312.5 M 718.5 0.5 L 718.5 1312.5 M 730.5 0.5 L 730.5 1312.5 M 752.5 0.5 L 752.5 1312.5 M 764.5 0.5 L 764.5 1312.5 M 775.5 0.5 L 775.5 1312.5 M 787.5 0.5 L 787.5 1312.5 M 810.5 0.5 L 810.5 1312.5 M 821.5 0.5 L 821.5 1312.5 M 833.5 0.5 L 833.5 1312.5 M 844.5 0.5 L 844.5 1312.5 M 867.5 0.5 L 867.5 1312.5 M 878.5 0.5 L 878.5 1312.5 M 890.5 0.5 L 890.5 1312.5 M 901.5 0.5 L 901.5 1312.5 M 924.5 0.5 L 924.5 1312.5 M 936.5 0.5 L 936.5 1312.5 M 947.5 0.5 L 947.5 1312.5 M 958.5 0.5 L 958.5 1312.5 M 981.5 0.5 L 981.5 1312.5 M 993.5 0.5 L 993.5 1312.5 M 1004.5 0.5 L 1004.5 1312.5 M 1016.5 0.5 L 1016.5 1312.5 M 1038.5 0.5 L 1038.5 1312.5 M 1050.5 0.5 L 1050.5 1312.5 M 1061.5 0.5 L 1061.5 1312.5 M 1073.5 0.5 L 1073.5 1312.5 M 1096.5 0.5 L 1096.5 1312.5 M 1107.5 0.5 L 1107.5 1312.5 M 1119.5 0.5 L 1119.5 1312.5 M 1130.5 0.5 L 1130.5 1312.5 M 1153.5 0.5 L 1153.5 1312.5 M 1164.5 0.5 L 1164.5 1312.5 M 1176.5 0.5 L 1176.5 1312.5 M 1187.5 0.5 L 1187.5 1312.5 M 1210.5 0.5 L 1210.5 1312.5 M 1222.5 0.5 L 1222.5 1312.5 M 1233.5 0.5 L 1233.5 1312.5 M 1244.5 0.5 L 1244.5 1312.5 M 1267.5 0.5 L 1267.5 1312.5 M 1279.5 0.5 L 1279.5 1312.5 M 1290.5 0.5 L 1290.5 1312.5 M 1302.5 0.5 L 1302.5 1312.5 M 1325.5 0.5 L 1325.5 1312.5 M 1336.5 0.5 L 1336.5 1312.5 M 1347.5 0.5 L 1347.5 1312.5 M 1359.5 0.5 L 1359.5 1312.5 M 1382.5 0.5 L 1382.5 1312.5 M 1393.5 0.5 L 1393.5 1312.5 M 1405.5 0.5 L 1405.5 1312.5 M 1416.5 0.5 L 1416.5 1312.5 M 1439.5 0.5 L 1439.5 1312.5 M 1450.5 0.5 L 1450.5 1312.5 M 1462.5 0.5 L 1462.5 1312.5 M 1473.5 0.5 L 1473.5 1312.5 M 1496.5 0.5 L 1496.5 1312.5 M 1508.5 0.5 L 1508.5 1312.5 M 1519.5 0.5 L 1519.5 1312.5 M 1530.5 0.5 L 1530.5 1312.5 M 1553.5 0.5 L 1553.5 1312.5 M 1565.5 0.5 L 1565.5 1312.5 M 1576.5 0.5 L 1576.5 1312.5 M 1588.5 0.5 L 1588.5 1312.5 M 1611.5 0.5 L 1611.5 1312.5 M 1622.5 0.5 L 1622.5 1312.5 M 1633.5 0.5 L 1633.5 1312.5 M 1645.5 0.5 L 1645.5 1312.5 M 1668.5 0.5 L 1668.5 1312.5 M 1679.5 0.5 L 1679.5 1312.5 M 1691.5 0.5 L 1691.5 1312.5 M 1702.5 0.5 L 1702.5 1312.5 M 1725.5 0.5 L 1725.5 1312.5 M 1736.5 0.5 L 1736.5 1312.5 M 1748.5 0.5 L 1748.5 1312.5 M 1759.5 0.5 L 1759.5 1312.5 M 1782.5 0.5 L 1782.5 1312.5 M 1794.5 0.5 L 1794.5 1312.5 M 1805.5 0.5 L 1805.5 1312.5 M 1817.5 0.5 L 1817.5 1312.5 M 1839.5 0.5 L 1839.5 1312.5 M 1851.5 0.5 L 1851.5 1312.5 M 1862.5 0.5 L 1862.5 1312.5 M 1874.5 0.5 L 1874.5 1312.5 M 1897.5 0.5 L 1897.5 1312.5 M 1908.5 0.5 L 1908.5 1312.5 M 1920.5 0.5 L 1920.5 1312.5 M 1931.5 0.5 L 1931.5 1312.5 M 1954.5 0.5 L 1954.5 1312.5 M 1965.5 0.5 L 1965.5 1312.5 M 1977.5 0.5 L 1977.5 1312.5 M 1988.5 0.5 L 1988.5 1312.5 M 2011.5 0.5 L 2011.5 1312.5 M 2022.5 0.5 L 2022.5 1312.5 M 2034.5 0.5 L 2034.5 1312.5 M 2045.5 0.5 L 2045.5 1312.5 M 2068.5 0.5 L 2068.5 1312.5 M 2080.5 0.5 L 2080.5 1312.5 M 2091.5 0.5 L 2091.5 1312.5 M 2103.5 0.5 L 2103.5 1312.5 M 2125.5 0.5 L 2125.5 1312.5 M 2137.5 0.5 L 2137.5 1312.5" stroke-opacity="0.23529411764705882" stroke-linecap="round" stroke-linejoin="round" stroke-miterlimit="10"/><path fill="none" stroke="rgb(180,179,186)" paint-order="fill stroke markers" d=" M 0.5 37.5 L 2148.5 37.5 M 0.5 37.5 L 2148.5 37.5 M 0.5 94.5 L 2148.5 94.5 M 0.5 151.5 L 2148.5 151.5 M 0.5 208.5 L 2148.5 208.5 M 0.5 266.5 L 2148.5 266.5 M 0.5 323.5 L 2148.5 323.5 M 0.5 380.5 L 2148.5 380.5 M 0.5 437.5 L 2148.5 437.5 M 0.5 494.5 L 2148.5 494.5 M 0.5 552.5 L 2148.5 552.5 M 0.5 609.5 L 2148.5 609.5 M 0.5 666.5 L 2148.5 666.5 M 0.5 723.5 L 2148.5 723.5 M 0.5 780.5 L 2148.5 780.5 M 0.5 838.5 L 2148.5 838.5 M 0.5 895.5 L 2148.5 895.5 M 0.5 1009.5 L 2148.5 1009.5 M 0.5 1066.5 L 2148.5 1066.5 M 0.5 1124.5 L 2148.5 1124.5 M 0.5 1181.5 L 2148.5 1181.5 M 0.5 1238.5 L 2148.5 1238.5 M 0.5 1295.5 L 2148.5 1295.5" stroke-opacity="1" stroke-linecap="round" stroke-linejoin="round" stroke-miterlimit="10"/><path fill="none" stroke="rgb(180,179,186)" paint-order="fill stroke markers" d=" M 0.5 2.5 L 2148.5 2.5 M 0.5 2.5 L 2148.5 2.5 M 0.5 14.5 L 2148.5 14.5 M 0.5 25.5 L 2148.5 25.5 M 0.5 48.5 L 2148.5 48.5 M 0.5 60.5 L 2148.5 60.5 M 0.5 71.5 L 2148.5 71.5 M 0.5 82.5 L 2148.5 82.5 M 0.5 105.5 L 2148.5 105.5 M 0.5 117.5 L 2148.5 117.5 M 0.5 128.5 L 2148.5 128.5 M 0.5 140.5 L 2148.5 140.5 M 0.5 163.5 L 2148.5 163.5 M 0.5 174.5 L 2148.5 174.5 M 0.5 185.5 L 2148.5 185.5 M 0.5 197.5 L 2148.5 197.5 M 0.5 220.5 L 2148.5 220.5 M 0.5 231.5 L 2148.5 231.5 M 0.5 243.5 L 2148.5 243.5 M 0.5 254.5 L 2148.5 254.5 M 0.5 277.5 L 2148.5 277.5 M 0.5 288.5 L 2148.5 288.5 M 0.5 300.5 L 2148.5 300.5 M 0.5 311.5 L 2148.5 311.5 M 0.5 334.5 L 2148.5 334.5 M 0.5 346.5 L 2148.5 346.5 M 0.5 357.5 L 2148.5 357.5 M 0.5 368.5 L 2148.5 368.5 M 0.5 391.5 L 2148.5 391.5 M 0.5 403.5 L 2148.5 403.5 M 0.5 414.5 L 2148.5 414.5 M 0.5 426.5 L 2148.5 426.5 M 0.5 449.5 L 2148.5 449.5 M 0.5 460.5 L 2148.5 460.5 M 0.5 471.5 L 2148.5 471.5 M 0.5 483.5 L 2148.5 483.5 M 0.5 506.5 L 2148.5 506.5 M 0.5 517.5 L 2148.5 517.5 M 0.5 529.5 L 2148.5 529.5 M 0.5 540.5 L 2148.5 540.5 M 0.5 563.5 L 2148.5 563.5 M 0.5 574.5 L 2148.5 574.5 M 0.5 586.5 L 2148.5 586.5 M 0.5 597.5 L 2148.5 597.5 M 0.5 620.5 L 2148.5 620.5 M 0.5 632.5 L 2148.5 632.5 M 0.5 643.5 L 2148.5 643.5 M 0.5 655.5 L 2148.5 655.5 M 0.5 677.5 L 2148.5 677.5 M 0.5 689.5 L 2148.5 689.5 M 0.5 700.5 L 2148.5 700.5 M 0.5 712.5 L 2148.5 712.5 M 0.5 735.5 L 2148.5 735.5 M 0.5 746.5 L 2148.5 746.5 M 0.5 758.5 L 2148.5 758.5 M 0.5 769.5 L 2148.5 769.5 M 0.5 792.5 L 2148.5 792.5 M 0.5 803.5 L 2148.5 803.5 M 0.5 815.5 L 2148.5 815.5 M 0.5 826.5 L 2148.5 826.5 M 0.5 849.5 L 2148.5 849.5 M 0.5 860.5 L 2148.5 860.5 M 0.5 872.5 L 2148.5 872.5 M 0.5 883.5 L 2148.5 883.5 M 0.5 906.5 L 2148.5 906.5 M 0.5 918.5 L 2148.5 918.5 M 0.5 929.5 L 2148.5 929.5 M 0.5 941.5 L 2148.5 941.5 M 0.5 963.5 L 2148.5 963.5 M 0.5 975.5 L 2148.5 975.5 M 0.5 986.5 L 2148.5 986.5 M 0.5 998.5 L 2148.5 998.5 M 0.5 1021.5 L 2148.5 1021.5 M 0.5 1032.5 L 2148.5 1032.5 M 0.5 1044.5 L 2148.5 1044.5 M 0.5 1055.5 L 2148.5 1055.5 M 0.5 1078.5 L 2148.5 1078.5 M 0.5 1089.5 L 2148.5 1089.5 M 0.5 1101.5 L 2148.5 1101.5 M 0.5 1112.5 L 2148.5 1112.5 M 0.5 1135.5 L 2148.5 1135.5 M 0.5 1147.5 L 2148.5 1147.5 M 0.5 1158.5 L 2148.5 1158.5 M 0.5 1169.5 L 2148.5 1169.5 M 0.5 1192.5 L 2148.5 1192.5 M 0.5 1204.5 L 2148.5 1204.5 M 0.5 1215.5 L 2148.5 1215.5 M 0.5 1227.5 L 2148.5 1227.5 M 0.5 1250.5 L 2148.5 1250.5 M 0.5 1261.5 L 2148.5 1261.5 M 0.5 1272.5 L 2148.5 1272.5 M 0.5 1284.5 L 2148.5 1284.5 M 0.5 1307.5 L 2148.5 1307.5" stroke-opacity="0.23529411764705882" stroke-linecap="round" stroke-linejoin="round" stroke-miterlimit="10"/><path fill="none" stroke="rgb(28,28,31)" paint-order="fill stroke markers" d=" M 741.5 2.5 L 741.5 1312.5" stroke-opacity="1" stroke-miterlimit="10"/><path fill="none" stroke="rgb(28,28,31)" paint-order="fill stroke markers" d=" M 741.5 1.5 L 737.5 5.5" stroke-opacity="1" stroke-miterlimit="10"/><path fill="none" stroke="rgb(28,28,31)" paint-order="fill stroke markers" d=" M 741.5 1.5 L 745.5 5.5" stroke-opacity="1" stroke-miterlimit="10"/><path fill="none" stroke="rgb(28,28,31)" paint-order="fill stroke markers" d=" M 0.5 952.5 L 2146.5 952.5" stroke-opacity="1" stroke-miterlimit="10"/><path fill="none" stroke="rgb(28,28,31)" paint-order="fill stroke markers" d=" M 2147.5 952.5 L 2143.5 948.5" stroke-opacity="1" stroke-miterlimit="10"/><path fill="none" stroke="rgb(28,28,31)" paint-order="fill stroke markers" d=" M 2147.5 952.5 L 2143.5 956.5" stroke-opacity="1" stroke-miterlimit="10"/><text fill="rgb(28,28,31)" stroke="none" font-family="geogebra-sans-serif, sans-serif" font-size="12px" font-style="normal" font-weight="normal" text-decoration="normal" x="43" y="968" text-anchor="start" dominant-baseline="alphabetic" fill-opacity="1">–2.4</text><text fill="rgb(28,28,31)" stroke="none" font-family="geogebra-sans-serif, sans-serif" font-size="12px" font-style="normal" font-weight="normal" text-decoration="normal" x="101" y="968" text-anchor="start" dominant-baseline="alphabetic" fill-opacity="1">–2.2</text><text fill="rgb(28,28,31)" stroke="none" font-family="geogebra-sans-serif, sans-serif" font-size="12px" font-style="normal" font-weight="normal" text-decoration="normal" x="164" y="968" text-anchor="start" dominant-baseline="alphabetic" fill-opacity="1">–2</text><text fill="rgb(28,28,31)" stroke="none" font-family="geogebra-sans-serif, sans-serif" font-size="12px" font-style="normal" font-weight="normal" text-decoration="normal" x="215" y="968" text-anchor="start" dominant-baseline="alphabetic" fill-opacity="1">–1.8</text><text fill="rgb(28,28,31)" stroke="none" font-family="geogebra-sans-serif, sans-serif" font-size="12px" font-style="normal" font-weight="normal" text-decoration="normal" x="272" y="968" text-anchor="start" dominant-baseline="alphabetic" fill-opacity="1">–1.6</text><text fill="rgb(28,28,31)" stroke="none" font-family="geogebra-sans-serif, sans-serif" font-size="12px" font-style="normal" font-weight="normal" text-decoration="normal" x="330" y="968" text-anchor="start" dominant-baseline="alphabetic" fill-opacity="1">–1.4</text><text fill="rgb(28,28,31)" stroke="none" font-family="geogebra-sans-serif, sans-serif" font-size="12px" font-style="normal" font-weight="normal" text-decoration="normal" x="387" y="968" text-anchor="start" dominant-baseline="alphabetic" fill-opacity="1">–1.2</text><text fill="rgb(28,28,31)" stroke="none" font-family="geogebra-sans-serif, sans-serif" font-size="12px" font-style="normal" font-weight="normal" text-decoration="normal" x="450" y="968" text-anchor="start" dominant-baseline="alphabetic" fill-opacity="1">–1</text><text fill="rgb(28,28,31)" stroke="none" font-family="geogebra-sans-serif, sans-serif" font-size="12px" font-style="normal" font-weight="normal" text-decoration="normal" x="501" y="968" text-anchor="start" dominant-baseline="alphabetic" fill-opacity="1">–0.8</text><text fill="rgb(28,28,31)" stroke="none" font-family="geogebra-sans-serif, sans-serif" font-size="12px" font-style="normal" font-weight="normal" text-decoration="normal" x="558" y="968" text-anchor="start" dominant-baseline="alphabetic" fill-opacity="1">–0.6</text><text fill="rgb(28,28,31)" stroke="none" font-family="geogebra-sans-serif, sans-serif" font-size="12px" font-style="normal" font-weight="normal" text-decoration="normal" x="616" y="968" text-anchor="start" dominant-baseline="alphabetic" fill-opacity="1">–0.4</text><text fill="rgb(28,28,31)" stroke="none" font-family="geogebra-sans-serif, sans-serif" font-size="12px" font-style="normal" font-weight="normal" text-decoration="normal" x="673" y="968" text-anchor="start" dominant-baseline="alphabetic" fill-opacity="1">–0.2</text><text fill="rgb(28,28,31)" stroke="none" font-family="geogebra-sans-serif, sans-serif" font-size="12px" font-style="normal" font-weight="normal" text-decoration="normal" x="790" y="968" text-anchor="start" dominant-baseline="alphabetic" fill-opacity="1">0.2</text><text fill="rgb(28,28,31)" stroke="none" font-family="geogebra-sans-serif, sans-serif" font-size="12px" font-style="normal" font-weight="normal" text-decoration="normal" x="847" y="968" text-anchor="start" dominant-baseline="alphabetic" fill-opacity="1">0.4</text><text fill="rgb(28,28,31)" stroke="none" font-family="geogebra-sans-serif, sans-serif" font-size="12px" font-style="normal" font-weight="normal" text-decoration="normal" x="905" y="968" text-anchor="start" dominant-baseline="alphabetic" fill-opacity="1">0.6</text><text fill="rgb(28,28,31)" stroke="none" font-family="geogebra-sans-serif, sans-serif" font-size="12px" font-style="normal" font-weight="normal" text-decoration="normal" x="962" y="968" text-anchor="start" dominant-baseline="alphabetic" fill-opacity="1">0.8</text><text fill="rgb(28,28,31)" stroke="none" font-family="geogebra-sans-serif, sans-serif" font-size="12px" font-style="normal" font-weight="normal" text-decoration="normal" x="1025" y="968" text-anchor="start" dominant-baseline="alphabetic" fill-opacity="1">1</text><text fill="rgb(28,28,31)" stroke="none" font-family="geogebra-sans-serif, sans-serif" font-size="12px" font-style="normal" font-weight="normal" text-decoration="normal" x="1076" y="968" text-anchor="start" dominant-baseline="alphabetic" fill-opacity="1">1.2</text><text fill="rgb(28,28,31)" stroke="none" font-family="geogebra-sans-serif, sans-serif" font-size="12px" font-style="normal" font-weight="normal" text-decoration="normal" x="1133" y="968" text-anchor="start" dominant-baseline="alphabetic" fill-opacity="1">1.4</text><text fill="rgb(28,28,31)" stroke="none" font-family="geogebra-sans-serif, sans-serif" font-size="12px" font-style="normal" font-weight="normal" text-decoration="normal" x="1191" y="968" text-anchor="start" dominant-baseline="alphabetic" fill-opacity="1">1.6</text><text fill="rgb(28,28,31)" stroke="none" font-family="geogebra-sans-serif, sans-serif" font-size="12px" font-style="normal" font-weight="normal" text-decoration="normal" x="1248" y="968" text-anchor="start" dominant-baseline="alphabetic" fill-opacity="1">1.8</text><text fill="rgb(28,28,31)" stroke="none" font-family="geogebra-sans-serif, sans-serif" font-size="12px" font-style="normal" font-weight="normal" text-decoration="normal" x="1311" y="968" text-anchor="start" dominant-baseline="alphabetic" fill-opacity="1">2</text><text fill="rgb(28,28,31)" stroke="none" font-family="geogebra-sans-serif, sans-serif" font-size="12px" font-style="normal" font-weight="normal" text-decoration="normal" x="1362" y="968" text-anchor="start" dominant-baseline="alphabetic" fill-opacity="1">2.2</text><text fill="rgb(28,28,31)" stroke="none" font-family="geogebra-sans-serif, sans-serif" font-size="12px" font-style="normal" font-weight="normal" text-decoration="normal" x="1420" y="968" text-anchor="start" dominant-baseline="alphabetic" fill-opacity="1">2.4</text><text fill="rgb(28,28,31)" stroke="none" font-family="geogebra-sans-serif, sans-serif" font-size="12px" font-style="normal" font-weight="normal" text-decoration="normal" x="1477" y="968" text-anchor="start" dominant-baseline="alphabetic" fill-opacity="1">2.6</text><text fill="rgb(28,28,31)" stroke="none" font-family="geogebra-sans-serif, sans-serif" font-size="12px" font-style="normal" font-weight="normal" text-decoration="normal" x="1534" y="968" text-anchor="start" dominant-baseline="alphabetic" fill-opacity="1">2.8</text><text fill="rgb(28,28,31)" stroke="none" font-family="geogebra-sans-serif, sans-serif" font-size="12px" font-style="normal" font-weight="normal" text-decoration="normal" x="1597" y="968" text-anchor="start" dominant-baseline="alphabetic" fill-opacity="1">3</text><text fill="rgb(28,28,31)" stroke="none" font-family="geogebra-sans-serif, sans-serif" font-size="12px" font-style="normal" font-weight="normal" text-decoration="normal" x="1648" y="968" text-anchor="start" dominant-baseline="alphabetic" fill-opacity="1">3.2</text><text fill="rgb(28,28,31)" stroke="none" font-family="geogebra-sans-serif, sans-serif" font-size="12px" font-style="normal" font-weight="normal" text-decoration="normal" x="1706" y="968" text-anchor="start" dominant-baseline="alphabetic" fill-opacity="1">3.4</text><text fill="rgb(28,28,31)" stroke="none" font-family="geogebra-sans-serif, sans-serif" font-size="12px" font-style="normal" font-weight="normal" text-decoration="normal" x="1763" y="968" text-anchor="start" dominant-baseline="alphabetic" fill-opacity="1">3.6</text><text fill="rgb(28,28,31)" stroke="none" font-family="geogebra-sans-serif, sans-serif" font-size="12px" font-style="normal" font-weight="normal" text-decoration="normal" x="1820" y="968" text-anchor="start" dominant-baseline="alphabetic" fill-opacity="1">3.8</text><text fill="rgb(28,28,31)" stroke="none" font-family="geogebra-sans-serif, sans-serif" font-size="12px" font-style="normal" font-weight="normal" text-decoration="normal" x="1883" y="968" text-anchor="start" dominant-baseline="alphabetic" fill-opacity="1">4</text><text fill="rgb(28,28,31)" stroke="none" font-family="geogebra-sans-serif, sans-serif" font-size="12px" font-style="normal" font-weight="normal" text-decoration="normal" x="1934" y="968" text-anchor="start" dominant-baseline="alphabetic" fill-opacity="1">4.2</text><text fill="rgb(28,28,31)" stroke="none" font-family="geogebra-sans-serif, sans-serif" font-size="12px" font-style="normal" font-weight="normal" text-decoration="normal" x="1992" y="968" text-anchor="start" dominant-baseline="alphabetic" fill-opacity="1">4.4</text><text fill="rgb(28,28,31)" stroke="none" font-family="geogebra-sans-serif, sans-serif" font-size="12px" font-style="normal" font-weight="normal" text-decoration="normal" x="2049" y="968" text-anchor="start" dominant-baseline="alphabetic" fill-opacity="1">4.6</text><text fill="rgb(28,28,31)" stroke="none" font-family="geogebra-sans-serif, sans-serif" font-size="12px" font-style="normal" font-weight="normal" text-decoration="normal" x="2106" y="968" text-anchor="start" dominant-baseline="alphabetic" fill-opacity="1">4.8</text><text fill="rgb(28,28,31)" stroke="none" font-family="geogebra-sans-serif, sans-serif" font-size="12px" font-style="normal" font-weight="normal" text-decoration="normal" x="711" y="1300" text-anchor="start" dominant-baseline="alphabetic" fill-opacity="1">–1.2</text><text fill="rgb(28,28,31)" stroke="none" font-family="geogebra-sans-serif, sans-serif" font-size="12px" font-style="normal" font-weight="normal" text-decoration="normal" x="721" y="1243" text-anchor="start" dominant-baseline="alphabetic" fill-opacity="1">–1</text><text fill="rgb(28,28,31)" stroke="none" font-family="geogebra-sans-serif, sans-serif" font-size="12px" font-style="normal" font-weight="normal" text-decoration="normal" x="711" y="1186" text-anchor="start" dominant-baseline="alphabetic" fill-opacity="1">–0.8</text><text fill="rgb(28,28,31)" stroke="none" font-family="geogebra-sans-serif, sans-serif" font-size="12px" font-style="normal" font-weight="normal" text-decoration="normal" x="711" y="1129" text-anchor="start" dominant-baseline="alphabetic" fill-opacity="1">–0.6</text><text fill="rgb(28,28,31)" stroke="none" font-family="geogebra-sans-serif, sans-serif" font-size="12px" font-style="normal" font-weight="normal" text-decoration="normal" x="711" y="1071" text-anchor="start" dominant-baseline="alphabetic" fill-opacity="1">–0.4</text><text fill="rgb(28,28,31)" stroke="none" font-family="geogebra-sans-serif, sans-serif" font-size="12px" font-style="normal" font-weight="normal" text-decoration="normal" x="711" y="1014" text-anchor="start" dominant-baseline="alphabetic" fill-opacity="1">–0.2</text><text fill="rgb(28,28,31)" stroke="none" font-family="geogebra-sans-serif, sans-serif" font-size="12px" font-style="normal" font-weight="normal" text-decoration="normal" x="717" y="900" text-anchor="start" dominant-baseline="alphabetic" fill-opacity="1">0.2</text><text fill="rgb(28,28,31)" stroke="none" font-family="geogebra-sans-serif, sans-serif" font-size="12px" font-style="normal" font-weight="normal" text-decoration="normal" x="717" y="843" text-anchor="start" dominant-baseline="alphabetic" fill-opacity="1">0.4</text><text fill="rgb(28,28,31)" stroke="none" font-family="geogebra-sans-serif, sans-serif" font-size="12px" font-style="normal" font-weight="normal" text-decoration="normal" x="717" y="785" text-anchor="start" dominant-baseline="alphabetic" fill-opacity="1">0.6</text><text fill="rgb(28,28,31)" stroke="none" font-family="geogebra-sans-serif, sans-serif" font-size="12px" font-style="normal" font-weight="normal" text-decoration="normal" x="717" y="728" text-anchor="start" dominant-baseline="alphabetic" fill-opacity="1">0.8</text><text fill="rgb(28,28,31)" stroke="none" font-family="geogebra-sans-serif, sans-serif" font-size="12px" font-style="normal" font-weight="normal" text-decoration="normal" x="727" y="671" text-anchor="start" dominant-baseline="alphabetic" fill-opacity="1">1</text><text fill="rgb(28,28,31)" stroke="none" font-family="geogebra-sans-serif, sans-serif" font-size="12px" font-style="normal" font-weight="normal" text-decoration="normal" x="717" y="614" text-anchor="start" dominant-baseline="alphabetic" fill-opacity="1">1.2</text><text fill="rgb(28,28,31)" stroke="none" font-family="geogebra-sans-serif, sans-serif" font-size="12px" font-style="normal" font-weight="normal" text-decoration="normal" x="717" y="557" text-anchor="start" dominant-baseline="alphabetic" fill-opacity="1">1.4</text><text fill="rgb(28,28,31)" stroke="none" font-family="geogebra-sans-serif, sans-serif" font-size="12px" font-style="normal" font-weight="normal" text-decoration="normal" x="717" y="499" text-anchor="start" dominant-baseline="alphabetic" fill-opacity="1">1.6</text><text fill="rgb(28,28,31)" stroke="none" font-family="geogebra-sans-serif, sans-serif" font-size="12px" font-style="normal" font-weight="normal" text-decoration="normal" x="717" y="442" text-anchor="start" dominant-baseline="alphabetic" fill-opacity="1">1.8</text><text fill="rgb(28,28,31)" stroke="none" font-family="geogebra-sans-serif, sans-serif" font-size="12px" font-style="normal" font-weight="normal" text-decoration="normal" x="727" y="385" text-anchor="start" dominant-baseline="alphabetic" fill-opacity="1">2</text><text fill="rgb(28,28,31)" stroke="none" font-family="geogebra-sans-serif, sans-serif" font-size="12px" font-style="normal" font-weight="normal" text-decoration="normal" x="717" y="328" text-anchor="start" dominant-baseline="alphabetic" fill-opacity="1">2.2</text><text fill="rgb(28,28,31)" stroke="none" font-family="geogebra-sans-serif, sans-serif" font-size="12px" font-style="normal" font-weight="normal" text-decoration="normal" x="717" y="271" text-anchor="start" dominant-baseline="alphabetic" fill-opacity="1">2.4</text><text fill="rgb(28,28,31)" stroke="none" font-family="geogebra-sans-serif, sans-serif" font-size="12px" font-style="normal" font-weight="normal" text-decoration="normal" x="717" y="213" text-anchor="start" dominant-baseline="alphabetic" fill-opacity="1">2.6</text><text fill="rgb(28,28,31)" stroke="none" font-family="geogebra-sans-serif, sans-serif" font-size="12px" font-style="normal" font-weight="normal" text-decoration="normal" x="717" y="156" text-anchor="start" dominant-baseline="alphabetic" fill-opacity="1">2.8</text><text fill="rgb(28,28,31)" stroke="none" font-family="geogebra-sans-serif, sans-serif" font-size="12px" font-style="normal" font-weight="normal" text-decoration="normal" x="727" y="99" text-anchor="start" dominant-baseline="alphabetic" fill-opacity="1">3</text><text fill="rgb(28,28,31)" stroke="none" font-family="geogebra-sans-serif, sans-serif" font-size="12px" font-style="normal" font-weight="normal" text-decoration="normal" x="717" y="42" text-anchor="start" dominant-baseline="alphabetic" fill-opacity="1">3.2</text><text fill="rgb(28,28,31)" stroke="none" font-family="geogebra-sans-serif, sans-serif" font-size="12px" font-style="normal" font-weight="normal" text-decoration="normal" x="727" y="968" text-anchor="start" dominant-baseline="alphabetic" fill-opacity="1">0</text><path fill="none" stroke="rgb(0,0,0)" paint-order="fill stroke markers" d=" M -5 952.7490763564848 L 2153 952.7490763564848" stroke-opacity="0.6980392156862745" stroke-linecap="round" stroke-linejoin="round" stroke-miterlimit="10" stroke-width="1.5"/><path fill="rgb(0,0,0)" stroke="none" paint-order="stroke fill markers" d=" M 741.5021706244199 951.2766566297498 C 741.0436465327306 951.2766566297499 740.6021730003307 951.5298995755046 740.3831660600472 951.9679134560716 C 740.0744294991576 952.5853865778507 740.324709932643 953.3362278783069 740.9421830544221 953.6449644391964 L 1297.8275115551435 1232.0876286895582 L 1297.8275115551437 1232.0876286895582 L 1296.4858707686437 1234.770910262558 L 1313.5917907965159 1238.5722258243075 L 1313.5917907965168 1238.5722258243075 L 1300.2871863303933 1227.1682791390588 L 1298.9455455438936 1229.8515607120582 L 1298.945545543893 1229.8515607120582 L 742.060217043172 951.4088964616967 C 741.8807578019599 951.3191668410907 741.6900331311183 951.2766566297498 741.5021706244199 951.2766566297498 Z" fill-opacity="0.6980392156862745"/><text fill="rgb(0,0,0)" stroke="none" font-family="geogebra-sans-serif, sans-serif" font-size="16px" font-style="normal" font-weight="normal" text-decoration="normal" x="1029" y="1091" text-anchor="start" dominant-baseline="alphabetic" fill-opacity="1">x</text><path fill="rgb(0,0,0)" stroke="none" paint-order="stroke fill markers" d=" M 455.4559046749371 380.4363397027246 L 459.2572202366867 397.542259730598 L 461.94050180968645 396.2006189440981 L 461.9405018096864 396.2006189440981 L 740.3831660600472 953.0859474448215 C 740.6021730003307 953.5239613253885 741.0436465327306 953.7772042711432 741.5021706244199 953.7772042711433 C 741.6900331311183 953.7772042711433 741.8807578019599 953.7346940598025 742.060217043172 953.6449644391964 C 742.6776901649511 953.3362278783069 742.9279705984364 952.5853865778507 742.6192340375469 951.9679134560716 L 464.1765697871862 395.08258495534824 L 464.17656978718617 395.08258495534824 L 466.8598513601859 393.74094416884833 L 455.4559046749371 380.4363397027246 Z" fill-opacity="0.6980392156862745"/><text fill="rgb(0,0,0)" stroke="none" font-family="geogebra-sans-serif, sans-serif" font-size="16px" font-style="normal" font-weight="normal" text-decoration="normal" x="607" y="657" text-anchor="start" dominant-baseline="alphabetic" fill-opacity="1">y</text><path fill="rgb(0,0,0)" stroke="none" paint-order="stroke fill markers" d=" M 741.501200048797 94.39104432886359 L 737.251200048797 111.39104432886359 L 740.251200048797 111.39104432886359 L 740.251200048797 952.5269304504466 C 740.251200048797 953.217286387735 740.8108441115086 953.7769304504466 741.501200048797 953.7769304504466 C 742.1915559860855 953.7769304504466 742.751200048797 953.217286387735 742.751200048797 952.5269304504466 L 742.751200048797 111.39104432886359 L 745.751200048797 111.39104432886359 L 741.501200048797 94.39104432886359 Z" fill-opacity="0.6980392156862745"/><text fill="rgb(0,0,0)" stroke="none" font-family="geogebra-sans-serif, sans-serif" font-size="16px" font-style="normal" font-weight="normal" text-decoration="normal" x="753" y="523" text-anchor="start" dominant-baseline="alphabetic" fill-opacity="1">Aim</text><path fill="rgb(21,101,192)" stroke="none" paint-order="stroke fill markers" d=" M 1318.591790796517 1238.5722258243077 C 1318.591790796517 1241.3336495734616 1316.3532145456709 1243.5722258243077 1313.591790796517 1243.5722258243077 C 1310.830367047363 1243.5722258243077 1308.591790796517 1241.3336495734616 1308.591790796517 1238.5722258243077 C 1308.591790796517 1235.8108020751538 1310.830367047363 1233.5722258243077 1313.591790796517 1233.5722258243077 C 1316.3532145456709 1233.5722258243077 1318.591790796517 1235.8108020751538 1318.591790796517 1238.5722258243077 Z" fill-opacity="1"/><path fill="none" stroke="rgb(0,0,0)" paint-order="fill stroke markers" d=" M 1318.591790796517 1238.5722258243077 C 1318.591790796517 1241.3336495734616 1316.3532145456709 1243.5722258243077 1313.591790796517 1243.5722258243077 C 1310.830367047363 1243.5722258243077 1308.591790796517 1241.3336495734616 1308.591790796517 1238.5722258243077 C 1308.591790796517 1235.8108020751538 1310.830367047363 1233.5722258243077 1313.591790796517 1233.5722258243077 C 1316.3532145456709 1233.5722258243077 1318.591790796517 1235.8108020751538 1318.591790796517 1238.5722258243077 Z" stroke-opacity="1" stroke-linecap="round" stroke-linejoin="round" stroke-miterlimit="10"/><text fill="rgb(21,101,192)" stroke="none" font-family="geogebra-sans-serif, sans-serif" font-size="16px" font-style="normal" font-weight="normal" text-decoration="normal" x="1318" y="1229" text-anchor="start" dominant-baseline="alphabetic" fill-opacity="1">x</text><path fill="rgb(21,101,192)" stroke="none" paint-order="stroke fill markers" d=" M 746.501200048797 952.5269304504466 C 746.501200048797 955.2883541996006 744.262623797951 957.5269304504466 741.501200048797 957.5269304504466 C 738.739776299643 957.5269304504466 736.501200048797 955.2883541996006 736.501200048797 952.5269304504466 C 736.501200048797 949.7655067012926 738.739776299643 947.5269304504466 741.501200048797 947.5269304504466 C 744.262623797951 947.5269304504466 746.501200048797 949.7655067012926 746.501200048797 952.5269304504466 Z" fill-opacity="1"/><path fill="none" stroke="rgb(0,0,0)" paint-order="fill stroke markers" d=" M 746.501200048797 952.5269304504466 C 746.501200048797 955.2883541996006 744.262623797951 957.5269304504466 741.501200048797 957.5269304504466 C 738.739776299643 957.5269304504466 736.501200048797 955.2883541996006 736.501200048797 952.5269304504466 C 736.501200048797 949.7655067012926 738.739776299643 947.5269304504466 741.501200048797 947.5269304504466 C 744.262623797951 947.5269304504466 746.501200048797 949.7655067012926 746.501200048797 952.5269304504466 Z" stroke-opacity="1" stroke-linecap="round" stroke-linejoin="round" stroke-miterlimit="10"/><text fill="rgb(21,101,192)" stroke="none" font-family="geogebra-sans-serif, sans-serif" font-size="16px" font-style="normal" font-weight="normal" text-decoration="normal" x="746" y="943" text-anchor="start" dominant-baseline="alphabetic" fill-opacity="1">A</text><path fill="rgb(21,101,192)" stroke="none" paint-order="stroke fill markers" d=" M 1318.591790796517 1238.5722258243077 C 1318.591790796517 1241.3336495734616 1316.3532145456709 1243.5722258243077 1313.591790796517 1243.5722258243077 C 1310.830367047363 1243.5722258243077 1308.591790796517 1241.3336495734616 1308.591790796517 1238.5722258243077 C 1308.591790796517 1235.8108020751538 1310.830367047363 1233.5722258243077 1313.591790796517 1233.5722258243077 C 1316.3532145456709 1233.5722258243077 1318.591790796517 1235.8108020751538 1318.591790796517 1238.5722258243077 Z" fill-opacity="1"/><path fill="none" stroke="rgb(0,0,0)" paint-order="fill stroke markers" d=" M 1318.591790796517 1238.5722258243077 C 1318.591790796517 1241.3336495734616 1316.3532145456709 1243.5722258243077 1313.591790796517 1243.5722258243077 C 1310.830367047363 1243.5722258243077 1308.591790796517 1241.3336495734616 1308.591790796517 1238.5722258243077 C 1308.591790796517 1235.8108020751538 1310.830367047363 1233.5722258243077 1313.591790796517 1233.5722258243077 C 1316.3532145456709 1233.5722258243077 1318.591790796517 1235.8108020751538 1318.591790796517 1238.5722258243077 Z" stroke-opacity="1" stroke-linecap="round" stroke-linejoin="round" stroke-miterlimit="10"/><text fill="rgb(21,101,192)" stroke="none" font-family="geogebra-sans-serif, sans-serif" font-size="16px" font-style="normal" font-weight="normal" text-decoration="normal" x="1318" y="1229" text-anchor="start" dominant-baseline="alphabetic" fill-opacity="1">A'</text><path fill="rgb(21,101,192)" stroke="none" paint-order="stroke fill markers" d=" M 460.4559046749371 380.4363397027246 C 460.4559046749371 383.19776345187853 458.217328424091 385.4363397027246 455.4559046749371 385.4363397027246 C 452.6944809257831 385.4363397027246 450.4559046749371 383.19776345187853 450.4559046749371 380.4363397027246 C 450.4559046749371 377.67491595357063 452.6944809257831 375.4363397027246 455.4559046749371 375.4363397027246 C 458.217328424091 375.4363397027246 460.4559046749371 377.67491595357063 460.4559046749371 380.4363397027246 Z" fill-opacity="1"/><path fill="none" stroke="rgb(0,0,0)" paint-order="fill stroke markers" d=" M 460.4559046749371 380.4363397027246 C 460.4559046749371 383.19776345187853 458.217328424091 385.4363397027246 455.4559046749371 385.4363397027246 C 452.6944809257831 385.4363397027246 450.4559046749371 383.19776345187853 450.4559046749371 380.4363397027246 C 450.4559046749371 377.67491595357063 452.6944809257831 375.4363397027246 455.4559046749371 375.4363397027246 C 458.217328424091 375.4363397027246 460.4559046749371 377.67491595357063 460.4559046749371 380.4363397027246 Z" stroke-opacity="1" stroke-linecap="round" stroke-linejoin="round" stroke-miterlimit="10"/><text fill="rgb(21,101,192)" stroke="none" font-family="geogebra-sans-serif, sans-serif" font-size="16px" font-style="normal" font-weight="normal" text-decoration="normal" x="459" y="370" text-anchor="start" dominant-baseline="alphabetic" fill-opacity="1">C</text><path fill="rgb(21,101,192)" stroke="none" paint-order="stroke fill markers" d=" M 460.4559046749371 380.4363397027246 C 460.4559046749371 383.19776345187853 458.217328424091 385.4363397027246 455.4559046749371 385.4363397027246 C 452.6944809257831 385.4363397027246 450.4559046749371 383.19776345187853 450.4559046749371 380.4363397027246 C 450.4559046749371 377.67491595357063 452.6944809257831 375.4363397027246 455.4559046749371 375.4363397027246 C 458.217328424091 375.4363397027246 460.4559046749371 377.67491595357063 460.4559046749371 380.4363397027246 Z" fill-opacity="1"/><path fill="none" stroke="rgb(0,0,0)" paint-order="fill stroke markers" d=" M 460.4559046749371 380.4363397027246 C 460.4559046749371 383.19776345187853 458.217328424091 385.4363397027246 455.4559046749371 385.4363397027246 C 452.6944809257831 385.4363397027246 450.4559046749371 383.19776345187853 450.4559046749371 380.4363397027246 C 450.4559046749371 377.67491595357063 452.6944809257831 375.4363397027246 455.4559046749371 375.4363397027246 C 458.217328424091 375.4363397027246 460.4559046749371 377.67491595357063 460.4559046749371 380.4363397027246 Z" stroke-opacity="1" stroke-linecap="round" stroke-linejoin="round" stroke-miterlimit="10"/><text fill="rgb(21,101,192)" stroke="none" font-family="geogebra-sans-serif, sans-serif" font-size="16px" font-style="normal" font-weight="normal" text-decoration="normal" x="459" y="370" text-anchor="start" dominant-baseline="alphabetic" fill-opacity="1">A'</text><text fill="rgb(21,101,192)" stroke="none" font-family="geogebra-sans-serif, sans-serif" font-size="14px" font-style="normal" font-weight="normal" text-decoration="normal" x="473" y="377" text-anchor="start" dominant-baseline="alphabetic" fill-opacity="1">1</text><path fill="rgb(21,101,192)" stroke="none" paint-order="stroke fill markers" d=" M 746.501200048797 94.39104432886359 C 746.501200048797 97.15246807801755 744.262623797951 99.39104432886359 741.501200048797 99.39104432886359 C 738.739776299643 99.39104432886359 736.501200048797 97.15246807801755 736.501200048797 94.39104432886359 C 736.501200048797 91.62962057970962 738.739776299643 89.39104432886359 741.501200048797 89.39104432886359 C 744.262623797951 89.39104432886359 746.501200048797 91.62962057970962 746.501200048797 94.39104432886359 Z" fill-opacity="1"/><path fill="none" stroke="rgb(0,0,0)" paint-order="fill stroke markers" d=" M 746.501200048797 94.39104432886359 C 746.501200048797 97.15246807801755 744.262623797951 99.39104432886359 741.501200048797 99.39104432886359 C 738.739776299643 99.39104432886359 736.501200048797 97.15246807801755 736.501200048797 94.39104432886359 C 736.501200048797 91.62962057970962 738.739776299643 89.39104432886359 741.501200048797 89.39104432886359 C 744.262623797951 89.39104432886359 746.501200048797 91.62962057970962 746.501200048797 94.39104432886359 Z" stroke-opacity="1" stroke-linecap="round" stroke-linejoin="round" stroke-miterlimit="10"/><text fill="rgb(21,101,192)" stroke="none" font-family="geogebra-sans-serif, sans-serif" font-size="16px" font-style="normal" font-weight="normal" text-decoration="normal" x="746" y="84" text-anchor="start" dominant-baseline="alphabetic" fill-opacity="1">B</text><text fill="rgb(21,101,192)" stroke="none" font-family="geogebra-sans-serif, sans-serif" font-size="14px" font-style="normal" font-weight="normal" text-decoration="normal" x="757" y="91" text-anchor="start" dominant-baseline="alphabetic" fill-opacity="1">2</text></g></g></svg>